<svg width="34" height="34" viewBox="0 0 34 34" fill="none" xmlns="http://www.w3.org/2000/svg">
<path d="M0 10C0 4.47715 4.47715 0 10 0H24C29.5228 0 34 4.47715 34 10V24C34 29.5228 29.5228 34 24 34H10C4.47715 34 0 29.5228 0 24V10Z" fill="white" fill-opacity="0.2"/>
<g clip-path="url(#clip0_2912_595)">
<path d="M17 11.9998V16.9998L20.3333 18.6665M25.3333 16.9998C25.3333 21.6022 21.6023 25.3332 17 25.3332C12.3976 25.3332 8.66663 21.6022 8.66663 16.9998C8.66663 12.3975 12.3976 8.6665 17 8.6665C21.6023 8.6665 25.3333 12.3975 25.3333 16.9998Z" stroke="white" stroke-width="1.5" stroke-linecap="round" stroke-linejoin="round"/>
</g>
<defs>
<clipPath id="clip0_2912_595">
<rect width="20" height="20" fill="white" transform="translate(7 7)"/>
</clipPath>
</defs>
</svg>
