<svg width="401" height="79" viewBox="0 0 401 79" fill="none" xmlns="http://www.w3.org/2000/svg">
<path d="M313.942 27.6479H304.468V60.9465H313.942V27.6479Z" fill="white"/>
<path d="M313.942 16.6738H304.468V24.0366H313.942V16.6738Z" fill="white"/>
<path d="M107.325 16.6738H97.4219V60.9468H127.66V52.4587H107.325V16.6738Z" fill="white"/>
<path d="M147.23 24.8774C136.69 24.8774 128.347 33.0118 128.347 43.2629C128.347 53.5139 136.69 61.6698 147.23 61.6698C157.771 61.6698 166.184 53.5354 166.184 43.2789C166.184 33.0225 157.835 24.8774 147.23 24.8774ZM147.23 52.8816C141.925 52.8816 137.965 48.8519 137.965 43.2361C137.965 37.6202 141.925 33.6227 147.23 33.6227C152.535 33.6227 156.495 37.722 156.495 43.2361C156.495 48.7501 152.535 52.8816 147.23 52.8816Z" fill="white"/>
<path d="M205.918 53.4503C204.22 53.4503 202.735 52.459 202.735 49.4207V35.2793H211.77V27.6486H202.735V18.0513H193.261V27.6486H180.819V18.0513H171.344V27.6486H166.184V35.2793H171.344V49.56C171.344 57.5497 175.165 61.6544 182.233 61.6544C185.425 61.6607 188.548 60.729 191.214 58.9751L188.535 51.9767C187.193 52.8837 185.625 53.3978 184.007 53.4611C182.308 53.4611 180.824 52.4697 180.824 49.4314V35.2793H193.267V49.56C193.267 57.5497 197.082 61.6544 204.155 61.6544C207.347 61.6597 210.47 60.7281 213.136 58.9751L210.457 51.9767C209.112 52.8831 207.539 53.3936 205.918 53.4503V53.4503Z" fill="white"/>
<path d="M265.817 40.7714C264.37 30.8311 255.705 23.8006 246.183 25.1885C243.788 25.5154 241.483 26.3172 239.402 27.5468C237.321 28.7764 235.507 30.4091 234.065 32.3492C232.624 34.2892 231.584 36.4975 231.008 38.8446C230.431 41.1917 230.329 43.6303 230.707 46.0175C232.384 57.5653 242.314 62.9132 252.527 61.4235C257.153 60.7733 261.486 58.7775 264.986 55.6845L260.506 49.4738C257.949 51.6841 254.808 53.1093 251.461 53.5785C246.842 54.2484 242.517 52.5068 240.695 47.8555L266.095 44.1581C266.065 43.0249 265.972 41.8943 265.817 40.7714V40.7714ZM239.645 41.6449C239.913 37.1061 242.989 33.6551 247.045 33.0711C249.107 32.7505 251.214 33.1924 252.973 34.314C254.731 35.4355 256.021 37.1598 256.6 39.1638L239.645 41.6449Z" fill="white"/>
<path d="M368.665 40.7714C367.218 30.8311 358.548 23.8006 349.031 25.1885C346.636 25.5147 344.33 26.316 342.249 27.5455C340.168 28.7749 338.353 30.4076 336.912 32.3478C335.47 34.288 334.431 36.4966 333.854 38.844C333.278 41.1914 333.176 43.6302 333.555 46.0175C335.232 57.5653 345.156 62.9132 355.375 61.4235C360 60.7732 364.33 58.7774 367.829 55.6845L363.354 49.4738C360.795 51.6842 357.653 53.1095 354.304 53.5785C349.685 54.2484 345.36 52.5068 343.538 47.8555L368.943 44.1581C368.91 43.0251 368.817 41.8946 368.665 40.7714V40.7714ZM342.493 41.6449C342.761 37.1061 345.832 33.6551 349.894 33.0711C351.952 32.7491 354.058 33.1907 355.813 34.3128C357.569 35.435 358.854 37.1602 359.427 39.1638L342.493 41.6449Z" fill="white"/>
<path d="M329.499 16.6738H320.024V60.9415H329.499V16.6738Z" fill="white"/>
<path d="M388.283 38.8098C385.03 38.1025 382.061 37.4648 382.061 35.4875C382.061 34.0031 384.113 33.0118 386.305 33.0118C389.728 33.0661 393.093 33.9135 396.133 35.4875L399.316 28.4141C395.362 25.9953 390.794 24.7674 386.16 24.8774C379.516 24.8774 372.443 28.6981 372.443 35.9108C372.443 42.7002 378.171 45.0205 385.175 46.8692C388.213 47.7212 391.257 48.2142 391.257 50.3362C391.257 52.4582 387.65 53.3049 385.453 53.3049C381.452 53.3829 377.549 52.0556 374.425 49.5539L371.028 56.847C373.011 58.685 377.887 61.6697 385.453 61.6697C392.034 61.6697 400.87 58.7707 400.87 50.0683C400.87 42.8395 394.317 40.2352 388.283 38.8098Z" fill="white"/>
<path d="M226.42 27.6479H216.946V60.9465H226.42V27.6479Z" fill="white"/>
<path d="M226.42 16.6738H216.946V24.0366H226.42V16.6738Z" fill="white"/>
<path d="M269.852 60.9468H279.733V42.8561H296.489V34.4591H279.733V25.1458H300.09V16.6738H269.852V60.9468Z" fill="white"/>
<path fill-rule="evenodd" clip-rule="evenodd" d="M20.6167 0.142578H59.1666C70.0724 0.142578 78.9132 8.98341 78.9132 19.8891V58.4391C78.9132 69.3448 70.0724 78.1856 59.1666 78.1856H20.6167C9.711 78.1856 0.870117 69.3448 0.870117 58.4391V19.8891C0.870117 8.98341 9.711 0.142578 20.6167 0.142578ZM37.7736 34.9118C41.7758 27.2074 46.7552 17.6219 60.1847 17.6219C61.2085 17.6219 62.1904 18.0283 62.9148 18.7517C63.6392 19.4751 64.0468 20.4564 64.0483 21.4802C64.0483 21.9873 63.9484 22.4894 63.7542 22.9579C63.5599 23.4263 63.2752 23.8519 62.9164 24.2102C62.5575 24.5686 62.1315 24.8526 61.6628 25.0462C61.1941 25.2398 60.6918 25.3391 60.1847 25.3384C52.0289 25.3384 48.862 30.3058 44.618 38.4777L42.0083 43.4077L42.0041 43.4157C38.0019 51.12 33.0227 60.7053 19.5879 60.7053C18.5651 60.7039 17.5845 60.297 16.8612 59.5737C16.138 58.8505 15.731 57.8699 15.7296 56.8471C15.7296 56.3404 15.8292 55.8387 16.0231 55.3706C16.217 54.9025 16.5014 54.4772 16.8596 54.1189C17.2179 53.7607 17.6433 53.4765 18.1114 53.2826C18.5795 53.0887 19.0812 52.9889 19.5879 52.9889C27.7491 52.9889 30.9159 48.0215 35.1546 39.8495L37.7695 34.9196L37.7736 34.9118Z" fill="white"/>
</svg>
