<svg width="34" height="34" viewBox="0 0 34 34" fill="none" xmlns="http://www.w3.org/2000/svg">
<path d="M0 10C0 4.47715 4.47715 0 10 0H24C29.5228 0 34 4.47715 34 10V24C34 29.5228 29.5228 34 24 34H10C4.47715 34 0 29.5228 0 24V10Z" fill="white" fill-opacity="0.2"/>
<path d="M17 17.8332C18.3808 17.8332 19.5 16.7139 19.5 15.3332C19.5 13.9525 18.3808 12.8332 17 12.8332C15.6193 12.8332 14.5 13.9525 14.5 15.3332C14.5 16.7139 15.6193 17.8332 17 17.8332Z" stroke="white" stroke-width="1.5" stroke-linecap="round" stroke-linejoin="round"/>
<path d="M17 25.3332C20.3334 21.9998 23.6667 19.0151 23.6667 15.3332C23.6667 11.6513 20.6819 8.6665 17 8.6665C13.3181 8.6665 10.3334 11.6513 10.3334 15.3332C10.3334 19.0151 13.6667 21.9998 17 25.3332Z" stroke="white" stroke-width="1.5" stroke-linecap="round" stroke-linejoin="round"/>
</svg>
